<svg width="1440" height="1024" viewBox="0 0 1440 1024" fill="none" xmlns="http://www.w3.org/2000/svg">
<path d="M0 667.5C0 667.5 362 295.5 720 344.75C1078 394 1440 -51 1440 -51C1440 -51 1440 240 1440 258C1440 266.466 1251.5 642.5 784 615.67C316.5 588.839 0 975.5 0 975.5V667.5Z" fill="#FFABAB"/>
<path d="M0 778.5C0 778.5 362 406.5 720 455.75C1078 505 1440 60 1440 60C1440 60 1440 351 1440 369C1440 377.466 1251.5 753.5 784 726.67C316.5 699.839 0 1086.5 0 1086.5V778.5Z" fill="#FF8383"/>
<path d="M0 717.5C0 717.5 362 345.5 720 394.75C1078 444 1440 -1 1440 -1C1440 -1 1440 290 1440 308C1440 316.466 1251.5 692.5 784 665.67C316.5 638.839 0 1025.5 0 1025.5V717.5Z" fill="#FF9E9E"/>
</svg>
